<?xml version="1.0" encoding="UTF-8" standalone="no"?>
<svg
   xmlns:dc="http://purl.org/dc/elements/1.1/"
   xmlns:cc="http://creativecommons.org/ns#"
   xmlns:rdf="http://www.w3.org/1999/02/22-rdf-syntax-ns#"
   xmlns:svg="http://www.w3.org/2000/svg"
   xmlns="http://www.w3.org/2000/svg"
   xmlns:sodipodi="http://sodipodi.sourceforge.net/DTD/sodipodi-0.dtd"
   xmlns:inkscape="http://www.inkscape.org/namespaces/inkscape"
   version="1.1"
   x="0px"
   y="0px"
   width="40"
   height="40"
   viewBox="0 0 40 40"
   id="svg2"
   inkscape:version="0.91 r13725"
   sodipodi:docname="success.svg">
  <metadata
     id="metadata47">
    <rdf:RDF>
      <cc:Work
         rdf:about="">
        <dc:format>image/svg+xml</dc:format>
        <dc:type
           rdf:resource="http://purl.org/dc/dcmitype/StillImage" />
        <dc:title>Success</dc:title>
      </cc:Work>
    </rdf:RDF>
  </metadata>
  <defs
     id="defs45" />
  <sodipodi:namedview
     pagecolor="#ffffff"
     bordercolor="#666666"
     borderopacity="1"
     objecttolerance="10"
     gridtolerance="10"
     guidetolerance="10"
     inkscape:pageopacity="0"
     inkscape:pageshadow="2"
     inkscape:window-width="745"
     inkscape:window-height="480"
     id="namedview43"
     showgrid="false"
     inkscape:zoom="4.9166667"
     inkscape:cx="24"
     inkscape:cy="24"
     inkscape:window-x="946"
     inkscape:window-y="529"
     inkscape:window-maximized="0"
     inkscape:current-layer="svg2" />
  <title
     id="title4">Success</title>
  <radialGradient
     id="SVGID_1_"
     cx="-20.649401"
     cy="-408.35941"
     r="17.25"
     gradientTransform="matrix(1.1594,0,0,-0.5024,48.4624,-167.4174)"
     gradientUnits="userSpaceOnUse">
    <stop
       offset="0"
       stop-color="#000000"
       id="stop7" />
    <stop
       offset="1"
       stop-color="#000000"
       stop-opacity="0"
       id="stop9" />
  </radialGradient>
  <radialGradient
     id="SVGID_2_"
     cx="14.4424"
     cy="21.605499"
     r="29.756399"
     gradientTransform="matrix(1.0560961,0,0,-1.056069,5.3890272,31.905422)"
     gradientUnits="userSpaceOnUse">
    <stop
       offset="0"
       stop-color="#08F000"
       id="stop14" />
    <stop
       offset="1"
       stop-color="#0B7B00"
       id="stop16" />
  </radialGradient>
  <path
     d="m 25.583888,10.714725 -3.447,6.333 -3.071,5.585 c -0.1,0.1 -0.069,0.418 -0.501,0.528 -0.3,0.077 -0.354,-0.035 -0.669,-0.237 l -3.858,-3.048 c -0.429,-0.345 -0.416,-0.327 -0.721,-0.021 l -1.549,1.954 c -0.418,0.447 -0.354,0.717 0.167,1.051 0,0 7.261,5.984 7.27,5.989 0.087,0.047 0.05,0.063 0.421,0.32 0.238,0.166 0.448,-0.359 0.602,-0.64 l 8.828,-16.108 c 0.2,-0.366 0.185,-0.361 -0.185,-0.563 l -2.632,-1.396 c -0.38,-0.205 -0.382,-0.203 -0.655,0.253 z"
     id="path41"
     inkscape:connector-curvature="0"
     style="opacity:0.37999998;fill:none;stroke:url(#SVGID_5_);stroke-width:0.95599997;stroke-linecap:round;stroke-linejoin:round" />
  <path
     d="m 37.30755,20.94845 c 0,10.083 -8.174,18.257 -18.257,18.257 -10.083,0 -18.256,-8.174 -18.256,-18.257 l 0,0 c 0,-10.083 8.174,-18.256 18.256,-18.256 10.084,0 18.257,8.173 18.257,18.256 l 0,0 z"
     id="path32"
     inkscape:connector-curvature="0"
     style="opacity:0.37629999;fill:none;stroke:url(#SVGID_4_);stroke-width:1.5891" />
  <path
     d="M 40,20 C 40,31.045389 31.045159,40 19.999487,40 8.9538138,40 0,31.045389 0,20 l 0,0 C 0,8.954611 8.9538138,0 19.999487,0 31.045159,0.00103 40,8.954611 40,20 l 0,0 z"
     id="path18"
     inkscape:connector-curvature="0"
     style="fill:url(#SVGID_2_);stroke:none;stroke-width:1.48959994" />
  <radialGradient
     id="SVGID_3_"
     cx="15.9395"
     cy="12.6724"
     r="18.623899"
     gradientTransform="matrix(1.0641446,0,0,-1.0641446,2.9219851,25.899945)"
     gradientUnits="userSpaceOnUse">
    <stop
       offset="0"
       stop-color="#FFFFFF"
       id="stop21" />
    <stop
       offset="1"
       stop-color="#DFDFDF"
       id="stop23" />
  </radialGradient>
  <path
     d="M 34.935949,19.963525 C 34.935949,28.277349 28.196298,35.017 19.882475,35.017 11.568651,35.017 4.829,28.277349 4.829,19.963525 l 0,0 c 0,-8.313823 6.739651,-15.0534742 15.053475,-15.0534742 8.313823,0 15.053474,6.7396512 15.053474,15.0534742 z"
     id="path25"
     inkscape:connector-curvature="0"
     style="fill:url(#SVGID_3_)" />
  <linearGradient
     id="SVGID_4_"
     gradientUnits="userSpaceOnUse"
     x1="-281.5"
     y1="420.5"
     x2="-280.5"
     y2="420.5"
     gradientTransform="translate(-4.92445,-2.07555)">
    <stop
       offset="0"
       stop-color="#FFFFFF"
       id="stop28" />
    <stop
       offset="1"
       stop-color="#FFFFFF"
       stop-opacity="0"
       id="stop30" />
  </linearGradient>
  <path
     d="m 24.706414,9.5627432 c -0.311,-0.032 -0.62,0.121 -0.779,0.4129992 l -6.802,12.4459996 -4.373,-3.477 c -0.391,-0.213 -0.876,-0.076 -1.089,0.313 l -1.9609996,2.518 c -0.214,0.39 -0.069,0.875 0.3189996,1.088 0,0 7.986,6.596 7.996,6.601 0.091,0.05 0.187,0.075 0.284,0.087 0.316,0.04 0.641,-0.108 0.804,-0.407 l 9.173,-16.785 c 0.214,-0.39 0.07,-0.875 -0.319,-1.088 l -2.943,-1.6149988 c -0.098,-0.054 -0.207,-0.083 -0.31,-0.094 z"
     id="path34"
     inkscape:connector-curvature="0"
     style="fill:#089600;stroke:#197a1b;stroke-width:0.95599997;stroke-linecap:round;stroke-linejoin:round" />
  <linearGradient
     id="SVGID_5_"
     gradientUnits="userSpaceOnUse"
     x1="-281.5"
     y1="420.5"
     x2="-280.5"
     y2="420.5"
     gradientTransform="translate(-3.704111,-2.9922692)">
    <stop
       offset="0"
       stop-color="#FFFFFF"
       id="stop37" />
    <stop
       offset="1"
       stop-color="#FFFFFF"
       stop-opacity="0"
       id="stop39" />
  </linearGradient>
</svg>
