<?xml version="1.0" encoding="UTF-8" standalone="no"?>
<svg width="2000.7" xmlns="http://www.w3.org/2000/svg" height="2000.5">
 <path id="path2821" stroke-width=".519" d="m1600.1 51.375c-32.015-40.366-90.35-47.095-130.72-15.08l-296.66 235.29-145.05-182.88c-10.114-12.806-30.995-15.212-43.762-5.0484l-282.64 224.17c-240.06 190.4-307.15 516.86-178.52 781.2l-467.52 370.81c-60.54 48.015-70.614 135.34-22.598 195.88 48.015 60.539 135.34 70.613 195.88 22.598l467.52-370.81c228.11 185.44 561.27 194.44 801.33 4.0454l282.64-224.17c12.806-10.114 15.211-30.996 5.0485-43.763l-145.05-182.88 296.66-235.29c40.366-32.016 47.096-90.349 15.08-130.72-32.015-40.365-90.35-47.094-130.72-15.079l-296.66 235.29-236-297.56 296.66-235.29c40.366-32.015 47.096-90.35 15.081-130.72l-0.0006 0.0005z"/>
</svg>
